<svg id="Capa_1" enable-background="new 0 0 512 512" height="512" viewBox="0 0 512 512" width="512" xmlns="http://www.w3.org/2000/svg"><path d="m327.637 482.818h-143.274l35.721-123.764h71.832z" fill="#a1e42c"/><path d="m291.916 359.054h-41.233l35.722 123.764h41.232z" fill="#95d528"/><circle cx="256" cy="206.219" fill="#fbd307" r="206.219"/><circle cx="256" cy="206.219" fill="#f1faff" r="174.455"/><path d="m256 31.764c-6.873 0-13.649.411-20.315 1.184 86.776 10.066 154.141 83.796 154.141 173.272s-67.364 163.206-154.141 173.272c6.666.773 13.442 1.184 20.315 1.184 96.349 0 174.456-78.106 174.456-174.456s-78.107-174.456-174.456-174.456z" fill="#dcf5ff"/><path d="m317.289 319.715c-10.047 0-19.167-2.842-27.109-8.447-7.744-5.465-6.544-13.19-5.153-22.135 4.857-31.234-2.336-46.177-18.827-62.688-7.469-7.478-10.311-10.78-5.583-17.482 19.896-28.187 79.34-25.454 106.295-6.432 26.212 18.497 25.737 57.841 6.063 85.72-13.488 19.113-35.345 31.463-55.685 31.463 0 .001 0 .001-.001.001z" fill="#95d528"/><path d="m366.913 202.531c-17.324-12.225-48.056-17.703-73.095-12.589 12.522 2.322 24.07 6.665 32.465 12.589 26.212 18.497 25.738 57.841 6.063 85.72-8.867 12.564-21.35 22.205-34.641 27.337 6.021 2.738 12.577 4.126 19.584 4.126h.002c20.34 0 42.197-12.35 55.685-31.463 19.674-27.879 20.149-67.223-6.063-85.72z" fill="#89c627"/><path d="m131.956 269.089c-13.845-30.109-8.149-69.495 21.604-83.176 8.686-3.995 14.714.971 21.733 6.641 25.261 20.402 41.945 20.918 63.678 15.145 4.711-1.25 7.706-1.928 10.042-1.928 4.785 0 6.578 3.028 7.883 5.865 14.889 32.38-19.155 82.049-47.736 95.191-28.505 13.11-62.668-6.126-77.204-37.738z" fill="#95d528"/><path d="m256.897 211.636c-1.305-2.837-3.098-5.865-7.883-5.865-2.336 0-5.33.678-10.042 1.928-2.848.757-5.608 1.402-8.314 1.912-4.762 28.157-29.165 58.372-50.522 68.192-14.705 6.763-30.91 4.902-45.155-2.81 15.859 28.034 47.497 44.106 74.18 31.835 28.58-13.143 62.624-62.812 47.736-95.192z" fill="#89c627"/><path d="m256.254 204.904c-9.488 0-28.189-3.905-46.839-30.055-11.969-16.786-19.703-37.623-19.703-53.084 0-29.984 29.851-54.378 66.542-54.378 32.003 0 66.543 20.79 66.543 54.378 0 9.478-7.004 12.951-15.114 16.972-28.34 14.049-36.388 28.559-40.364 51.527-1.804 10.414-2.863 14.64-11.065 14.64z" fill="#95d528"/><path d="m256.254 67.387c-6.466 0-12.712.772-18.628 2.184 22.123 5.358 41.279 20.257 44.352 43.651 1.234 9.397-5.258 13.753-12.775 18.796-26.269 17.62-32.359 33.054-33.311 56.344-.188 4.577-.39 7.98-1.219 10.458 8.872 4.976 16.531 6.084 21.581 6.084 8.202 0 9.261-4.226 11.065-14.64 3.977-22.968 12.024-37.477 40.364-51.527 8.11-4.021 15.114-7.494 15.114-16.972.001-33.588-34.54-54.378-66.543-54.378z" fill="#89c627"/><circle cx="256" cy="205.725" fill="#fbd307" r="33.928"/><path d="m344.144 455.223h-176.288c-24.757 0-47.203 14.55-57.31 37.15-4.123 9.22 2.623 19.627 12.723 19.627h265.464c10.1 0 16.846-10.408 12.723-19.627-10.109-22.601-32.554-37.15-57.312-37.15z" fill="#fbd307"/><path d="m401.455 492.373c-10.108-22.6-32.553-37.15-57.311-37.15h-40.63c24.757 0 47.203 14.55 57.31 37.15 4.123 9.22-2.623 19.627-12.723 19.627h40.63c10.101 0 16.847-10.408 12.724-19.627z" fill="#f9c301"/><path d="m327.637 490.501h-143.274c-4.244 0-7.683-3.44-7.683-7.683s3.439-7.683 7.683-7.683h143.274c4.244 0 7.683 3.44 7.683 7.683s-3.44 7.683-7.683 7.683z" fill="#f1faff"/></svg>