<?xml version="1.0" encoding="iso-8859-1"?>
<!-- Generator: Adobe Illustrator 21.0.0, SVG Export Plug-In . SVG Version: 6.00 Build 0)  -->
<svg xmlns="http://www.w3.org/2000/svg" xmlns:xlink="http://www.w3.org/1999/xlink" version="1.1" id="Capa_1" x="0px" y="0px" viewBox="0 0 512 512" style="enable-background:new 0 0 512 512;" xml:space="preserve" width="512" height="512">
<g>
	<g>
		<polyline style="fill:#79819A;" points="419.975,106.083 381.38,152.657 360.889,136.09 399.484,89.516   "/>
	</g>
	<g>
		<g>
			<rect x="242.846" y="28.701" style="fill:#79819A;" width="26.359" height="73.287"/>
		</g>
		<path style="fill:#5E6478;" d="M44.097,300.247C44.097,417.195,138.981,512,256.025,512s211.928-94.805,211.928-211.753    S373.07,88.494,256.025,88.494c-102.951,0-190.094,73.094-207.928,170.597C43.293,285.36,44.097,300.247,44.097,300.247z"/>
		<path style="fill:#4C5061;" d="M256.025,88.494c-5.714,0-11.377,0.238-16.985,0.68c109.089,8.658,194.917,99.847,194.917,211.073    c0,111.23-85.834,202.422-194.93,211.074c5.608,0.445,11.275,0.679,16.998,0.679c117.045,0,211.928-94.805,211.928-211.753    S373.07,88.494,256.025,88.494z"/>
		<path style="fill:#E3E6ED;" d="M365.184,436.282c39.837-31.955,65.339-81.019,65.339-136.035    c0-96.293-78.125-174.354-174.498-174.354S81.527,203.954,81.527,300.247s78.125,174.354,174.498,174.354    c24.915,0,49.194-3.987,70.052-14.619C353.378,446.068,365.184,436.282,365.184,436.282z"/>
		<g>
			<path style="fill:#FF7373;" d="M432.751,116.412c5.531,4.472,13.798,2.117,16.198-4.579c5.802-16.188,1.112-34.955-13.023-46.383     c-14.131-11.424-33.472-12.094-48.104-3.055c-6.057,3.742-6.633,12.33-1.097,16.806L432.751,116.412z"/>
		</g>
		<path style="fill:#5E6478;" d="M303.433,0c9.018,0,16.329,7.311,16.329,16.329v0c0,9.018-7.311,16.329-16.329,16.329h-94.815    c-9.018,0-16.329-7.311-16.329-16.329v0C192.289,7.311,199.6,0,208.618,0L303.433,0z"/>
		<g>
			<path style="fill:#4EA6E6;" d="M256.289,300.247l-0.473-125.892c0.158-0.001,0.315-0.001,0.473-0.001     c69.12,0,125.997,56.83,125.997,125.893H256.289z"/>
			<g>
				<path style="fill:#4C5061;" d="M204.175,218.827c-2.669,0-5.266-1.385-6.697-3.862l-11.598-20.072      c-2.135-3.695-0.871-8.421,2.824-10.555c3.695-2.135,8.421-0.871,10.555,2.824l11.598,20.072      c2.135,3.695,0.871,8.421-2.824,10.555C206.817,218.493,205.487,218.827,204.175,218.827z"/>
			</g>
			<g>
				<path style="fill:#4C5061;" d="M166.533,256.809c-1.31,0-2.637-0.333-3.854-1.035l-20.088-11.588      c-3.696-2.132-4.964-6.857-2.832-10.553c2.132-3.697,6.857-4.965,10.553-2.832l20.088,11.588      c3.696,2.132,4.964,6.857,2.832,10.553C171.802,255.422,169.204,256.809,166.533,256.809z"/>
			</g>
			<g>
				<path style="fill:#4C5061;" d="M152.961,308.5h-23.196c-4.267,0-7.726-3.459-7.726-7.726c0-4.267,3.459-7.726,7.726-7.726      h23.196c4.267,0,7.726,3.459,7.726,7.726C160.687,305.041,157.228,308.5,152.961,308.5z"/>
			</g>
			<g>
				<path style="fill:#4C5061;" d="M146.987,371.641c-2.671,0-5.269-1.387-6.7-3.867c-2.132-3.696-0.864-8.421,2.832-10.553      l20.088-11.589c3.694-2.131,8.42-0.865,10.553,2.832c2.132,3.696,0.864,8.421-2.832,10.553l-20.088,11.589      C149.624,371.307,148.296,371.641,146.987,371.641z"/>
			</g>
			<g>
				<path style="fill:#4C5061;" d="M193.477,417.721c-1.312,0-2.641-0.335-3.859-1.038c-3.695-2.135-4.959-6.861-2.824-10.555      l11.598-20.072c2.135-3.694,6.859-4.959,10.555-2.824c3.695,2.135,4.959,6.861,2.824,10.555l-11.598,20.072      C198.742,416.336,196.146,417.721,193.477,417.721z"/>
			</g>
			<g>
				<path style="fill:#4C5061;" d="M256.816,434.393c-4.267,0-7.726-3.459-7.726-7.726V403.49c0-4.267,3.459-7.726,7.726-7.726      c4.267,0,7.726,3.459,7.726,7.726v23.177C264.542,430.934,261.083,434.393,256.816,434.393z"/>
			</g>
			<g>
				<path style="fill:#4C5061;" d="M320.015,417.194c-2.669,0-5.266-1.385-6.697-3.862L301.72,393.26      c-2.135-3.695-0.871-8.421,2.824-10.555c3.695-2.135,8.422-0.871,10.555,2.824l11.598,20.072      c2.135,3.695,0.871,8.421-2.824,10.555C322.656,416.86,321.327,417.194,320.015,417.194z"/>
			</g>
			<g>
				<path style="fill:#4C5061;" d="M366.118,370.728c-1.31,0-2.638-0.333-3.854-1.035l-20.088-11.589      c-3.696-2.132-4.964-6.857-2.832-10.553c2.132-3.698,6.858-4.965,10.553-2.832l20.088,11.589      c3.696,2.132,4.964,6.857,2.832,10.553C371.387,369.342,368.789,370.728,366.118,370.728z"/>
			</g>
		</g>
	</g>
</g>















</svg>
