<?xml version="1.0" encoding="iso-8859-1"?>
<!-- Generator: Adobe Illustrator 21.0.0, SVG Export Plug-In . SVG Version: 6.00 Build 0)  -->
<svg xmlns="http://www.w3.org/2000/svg" xmlns:xlink="http://www.w3.org/1999/xlink" version="1.1" id="Capa_1" x="0px" y="0px" viewBox="0 0 512 512" style="enable-background:new 0 0 512 512;" xml:space="preserve" width="512" height="512">
<g>
	<path d="M399.594,141.597l16.665-20.578l15.654,12.656c3.174,2.565,7.976,2.058,10.544-1.112   c16.443-20.305,13.193-50.947-7.111-67.363c-20.543-16.607-50.779-13.42-67.402,7.105c-2.572,3.177-2.065,7.983,1.113,10.553   l15.645,12.649l-17.567,21.693c-26.936-16.505-57.802-27.196-90.842-30.327v-40.17h25.725c12.707,0,23.351-10.647,23.351-23.351   C325.369,10.645,314.727,0,302.019,0H259c-9.673,0-9.673,15,0,15h43.019c10.745,0,10.765,16.702,0,16.702h-92.037   c-10.745,0-10.765-16.702,0-16.702H225c9.673,0,9.673-15,0-15h-15.019c-12.707,0-23.351,10.647-23.351,23.351   c0,12.705,10.642,23.351,23.351,23.351h25.725v40.176c-92.835,8.866-170.612,77.9-188.901,170.672   c-0.801,4.064,1.844,8.008,5.908,8.809c4.062,0.804,8.008-1.844,8.809-5.908C79.748,168.001,161.538,100.901,256,100.901   c109.298,0,198.219,88.845,198.219,198.049S365.298,497,256,497S57.781,408.155,57.781,298.951c0-4.142-3.358-7.5-7.5-7.5   s-7.5,3.358-7.5,7.5C42.781,416.426,138.431,512,256,512s213.219-95.574,213.219-213.049   C469.219,236.691,442.35,180.587,399.594,141.597z M425.916,76.864c6.836,5.527,11.109,13.383,12.031,22.12   c0.654,6.197-0.433,12.311-3.093,17.779l-14.986-12.116c0,0-0.001-0.001-0.001-0.001s-0.001-0.001-0.001-0.001l-19.89-16.08   c0,0,0,0,0,0s0,0,0,0l-14.978-12.11C396.799,67.293,413.807,67.076,425.916,76.864z M396.368,104.938l8.226,6.651l-16.435,20.294   c-2.765-2.189-5.584-4.313-8.457-6.365L396.368,104.938z M250.707,85.972v-39.27h10.587v39.267   c-1.76-0.043-3.524-0.067-5.293-0.067C254.231,85.901,252.467,85.929,250.707,85.972z"/>
	<path d="M366.653,436.851c42.092-33.764,66.232-84.027,66.232-137.9c0-97.458-79.351-176.746-176.886-176.746   S79.114,201.493,79.114,298.951S158.465,475.696,256,475.696c24.689,0,48.582-4.986,71.012-14.821   c8.859-3.884,2.835-17.622-6.023-13.737c-20.52,8.997-42.385,13.559-64.988,13.559c-89.264,0-161.886-72.559-161.886-161.746   S166.736,137.205,256,137.205s161.886,72.559,161.886,161.746c0,49.3-22.095,95.298-60.618,126.199   C349.722,431.203,359.107,442.902,366.653,436.851z"/>
	<path d="M386.062,298.951c0-34.428-13.563-66.94-38.191-91.548c-24.626-24.605-57.162-38.157-91.614-38.157l-0.483,0   c-1.99,0.006-3.896,0.803-5.298,2.215c-1.402,1.412-2.186,3.323-2.178,5.313l0.459,122.204c0.016,4.131,3.369,7.472,7.5,7.472   h122.306C382.704,306.451,386.062,303.093,386.062,298.951z M263.728,291.451l-0.402-106.988   c27.811,1.708,53.843,13.469,73.942,33.552c19.993,19.976,31.745,45.816,33.549,73.437H263.728z"/>
	<path d="M205.669,219.917c5.679,0,9.306-6.376,6.487-11.254l-11.258-19.484c-4.839-8.376-17.827-0.87-12.987,7.505l11.258,19.484   C200.558,218.572,203.078,219.917,205.669,219.917z"/>
	<path d="M165.389,255.781c8.452,4.876,15.862-8.167,7.495-12.993l-19.5-11.249c-8.378-4.836-15.874,8.16-7.495,12.993   L165.389,255.781z"/>
	<path d="M125.938,299.462c0,4.142,3.358,7.5,7.5,7.5h22.517c9.673,0,9.673-15,0-15h-22.517   C129.296,291.962,125.938,295.32,125.938,299.462z"/>
	<path d="M150.156,368.253c1.271,0,2.561-0.324,3.741-1.005l19.5-11.249c8.379-4.834,0.882-17.827-7.495-12.993l-19.5,11.249   C139.939,357.983,142.643,368.253,150.156,368.253z"/>
	<path d="M191.538,411.975c3.546,2.049,8.206,0.79,10.246-2.741l11.258-19.484c4.84-8.375-8.148-15.88-12.987-7.505l-11.258,19.484   C186.724,405.315,187.952,409.903,191.538,411.975z"/>
	<path d="M249.268,399.169v22.498c0,9.673,15,9.673,15,0v-22.498C264.268,389.496,249.268,389.496,249.268,399.169z"/>
	<path d="M303.097,378.993c-3.586,2.072-4.814,6.66-2.741,10.246l11.258,19.484c4.845,8.387,17.838,0.888,12.987-7.505   l-11.258-19.484C311.272,378.147,306.684,376.92,303.097,378.993z"/>
	<path d="M339.627,355.113l19.5,11.249c8.451,4.878,15.862-8.167,7.495-12.993l-19.5-11.249   C338.745,337.284,331.249,350.28,339.627,355.113z"/>
</g>















</svg>
