<svg id="Capa_1" enable-background="new 0 0 512 512" height="512" viewBox="0 0 512 512" width="512" xmlns="http://www.w3.org/2000/svg"><g><path d="m256 397.665-122.694-70.835v-141.661l122.694-70.834 122.694 70.835v141.661zm-106.177-80.367 106.177 61.295 106.177-61.294v-122.597l-106.177-61.295-106.177 61.294z" fill="#dbeaff"/><path d="m471.657 361.439-36.988-21.355 29.173-7.818c8.811-2.359 14.04-11.415 11.677-20.226-2.363-8.81-11.427-14.052-20.226-11.677l-61.077 16.366-57.335-33.103v-55.253l57.335-33.103 61.077 16.366c1.431.387 2.871.568 4.286.568 7.29 0 13.964-4.867 15.94-12.246 2.363-8.811-2.867-17.867-11.677-20.226l-29.173-7.818 36.988-21.355c7.899-4.561 10.605-14.661 6.044-22.561-4.556-7.899-14.661-10.617-22.561-6.044l-36.984 21.353 7.815-29.171c2.363-8.811-2.867-17.867-11.677-20.226-8.815-2.387-17.871 2.863-20.226 11.677l-7.713 28.783-8.654 32.293-57.335 33.103-47.851-27.626v-66.207l44.71-44.71c6.452-6.448 6.452-16.907 0-23.355-6.444-6.452-16.911-6.452-23.355 0l-21.355 21.352v-42.704c.001-9.121-7.394-16.516-16.515-16.516s-16.516 7.395-16.516 16.516v42.707l-21.355-21.352c-6.443-6.452-16.911-6.452-23.355 0-6.452 6.448-6.452 16.907 0 23.355l44.71 44.71v66.207l-47.851 27.626-57.335-33.103-16.366-61.077c-2.359-8.814-11.439-14.056-20.226-11.677-8.81 2.359-14.04 11.415-11.677 20.226l7.814 29.171-36.984-21.353c-7.799-4.517-17.758-1.92-22.391 5.757l5.875 13.974 139.657 77.813v77l64.667 35v163.984l11.333 16.516c9.121 0 16.516-7.395 16.516-16.516v-42.707l21.355 21.352c3.222 3.226 7.452 4.839 11.677 4.839s8.456-1.613 11.677-4.839c6.452-6.448 6.452-16.907 0-23.355l-44.71-44.71v-66.207l47.851-27.626 57.335 33.103 16.366 61.077c1.976 7.379 8.649 12.246 15.939 12.246 1.415 0 2.855-.181 4.286-.569 8.81-2.359 14.04-11.415 11.677-20.226l-7.815-29.171 36.984 21.353c2.601 1.504 5.44 2.218 8.242 2.218 5.71 0 11.262-2.964 14.319-8.262 4.563-7.899 1.857-18-6.042-22.561zm-167.806-77.814-47.851 27.625-47.851-27.625v-55.25l47.851-27.625 47.851 27.625z" fill="#c3ddff"/><path d="m244.602 323.011-45.371-29.105c-4.735-3.037-7.598-8.276-7.598-13.902v-46.893c0-8.835-4.705-17.001-12.348-21.432l-144.817-83.966c-4.795 7.94-2.121 18.232 5.875 22.848l36.988 21.355-28.748 7.704c-8.386 2.247-13.977 10.493-12.399 19.03 1.499 8.107 8.522 13.556 16.235 13.556 1.415 0 2.855-.181 4.286-.569l61.077-16.366 57.335 33.103v55.253l-57.335 33.103-61.077-16.366c-9.301-2.511-18.839 3.449-20.547 13.129-1.497 8.487 4.055 16.646 12.38 18.876l28.792 7.716-36.622 21.144c-7.419 4.283-10.709 13.516-7.161 21.313 2.826 6.211 8.854 9.721 15.069 9.721 2.802 0 5.641-.714 8.242-2.218l36.984-21.353-7.686 28.691c-2.011 7.508 1.161 15.641 8.017 19.303 2.555 1.364 5.227 1.972 7.818 1.972 7.29 0 13.964-4.867 15.94-12.246l16.366-61.077 57.335-33.103 47.851 27.626v66.207l-44.424 44.424c-5.699 5.699-6.83 14.758-2.201 21.355 6.079 8.663 18.139 9.425 25.27 2.285l21.355-21.352v42.707c0 9.121 7.395 16.516 16.516 16.516v-168.136c.001-8.439-4.294-16.297-11.397-20.853z" fill="#a4ccff"/></g></svg>