<svg height="512pt" viewBox="-4 0 512 512" width="512pt" xmlns="http://www.w3.org/2000/svg"><g fill="#95a5a5"><path d="m252.289062 0c-4.875 0-8.828124 3.953125-8.828124 8.828125v25.597656c0 4.878907 3.953124 8.828125 8.828124 8.828125s8.828126-3.949218 8.828126-8.828125v-25.597656c0-4.875-3.953126-8.828125-8.828126-8.828125zm0 0"/><path d="m176.042969 20.71875c-1.015625-3.046875-3.601563-5.300781-6.757813-5.886719-3.15625-.585937-6.382812.585938-8.425781 3.0625-2.042969 2.476563-2.578125 5.867188-1.402344 8.851563l8.75 24.03125c1.011719 3.042968 3.601563 5.296875 6.757813 5.886718 3.15625.585938 6.382812-.585937 8.425781-3.0625 2.042969-2.476562 2.578125-5.867187 1.402344-8.855468zm0 0"/><path d="m100.171875 60.980469c-2.027344-2.414063-5.191406-3.566407-8.296875-3.015625-3.105469.546875-5.683594 2.710937-6.761719 5.675781-1.078125 2.960937-.492187 6.277344 1.535157 8.691406l16.453124 19.589844c3.136719 3.730469 8.707032 4.214844 12.4375 1.078125 3.734376-3.136719 4.214844-8.707031 1.078126-12.4375zm0 0"/><path d="m64.789062 137.550781-22.148437-12.78125c-4.21875-2.398437-9.582031-.941406-12.007813 3.257813-2.425781 4.203125-1.003906 9.578125 3.179688 12.03125l22.148438 12.78125c2.734374 1.601562 6.117187 1.617187 8.863281.039062 2.746093-1.578125 4.4375-4.503906 4.429687-7.671875-.007812-3.167969-1.710937-6.089843-4.464844-7.65625zm0 0"/><path d="m7.339844 221.777344 25.175781 4.410156c.511719.097656 1.027344.144531 1.546875.144531 4.578125 0 8.398438-3.5 8.796875-8.0625s-2.761719-8.671875-7.269531-9.460937l-25.179688-4.414063c-3.105468-.550781-6.269531.601563-8.296875 3.015625-2.0273435 2.417969-2.613281 5.730469-1.535156 8.695313 1.078125 2.964843 3.65625 5.128906 6.761719 5.679687zm0 0"/><path d="m42.746094 292.953125c-.40625-2.316406-1.71875-4.371094-3.644532-5.714844-1.925781-1.34375-4.308593-1.863281-6.621093-1.445312l-25.175781 4.414062c-4.511719.789063-7.667969 4.898438-7.2695318 9.460938.3945318 4.5625 4.2187498 8.0625 8.7968748 8.0625.519531 0 1.035157-.046875 1.542969-.132813l25.179688-4.414062c2.3125-.398438 4.371093-1.703125 5.71875-3.621094 1.351562-1.921875 1.882812-4.300781 1.472656-6.609375zm0 0"/><path d="m55.960938 359.160156-22.148438 12.78125c-2.753906 1.566406-4.457031 4.488282-4.464844 7.65625-.003906 3.167969 1.6875 6.09375 4.433594 7.671875s6.128906 1.5625 8.859375-.039062l22.148437-12.78125c2.753907-1.566407 4.457032-4.488281 4.464844-7.65625.007813-3.167969-1.683594-6.09375-4.429687-7.671875-2.746094-1.578125-6.128907-1.5625-8.863281.039062zm0 0"/><path d="m103.101562 420.078125-16.445312 19.589844c-3.136719 3.734375-2.648438 9.300781 1.085938 12.4375 3.734374 3.132812 9.304687 2.648437 12.4375-1.085938l16.4375-19.582031c2.027343-2.414062 2.617187-5.726562 1.539062-8.691406-1.074219-2.964844-3.652344-5.128906-6.757812-5.679688-3.105469-.550781-6.265626.597656-8.296876 3.011719zm0 0"/><path d="m179.511719 455.9375c-2.199219-.800781-4.628907-.6875-6.75.304688-2.121094.992187-3.761719 2.789062-4.554688 4.992187l-8.75 24.027344c-1.175781 2.984375-.640625 6.375 1.402344 8.851562 2.042969 2.476563 5.269531 3.652344 8.425781 3.0625 3.15625-.585937 5.742188-2.839843 6.757813-5.886719l8.75-24.027343c.804687-2.203125.699219-4.632813-.292969-6.757813-.988281-2.125-2.785156-3.769531-4.988281-4.566406zm0 0"/><path d="m252.289062 468.746094c-4.875 0-8.828124 3.949218-8.828124 8.828125v25.597656c0 4.875 3.953124 8.828125 8.828124 8.828125s8.828126-3.953125 8.828126-8.828125v-25.597656c0-4.878907-3.953126-8.828125-8.828126-8.828125zm0 0"/><path d="m336.371094 461.222656c-1.015625-3.042968-3.605469-5.296875-6.761719-5.886718-3.15625-.585938-6.378906.585937-8.421875 3.0625-2.042969 2.476562-2.582031 5.867187-1.402344 8.855468l8.746094 24.027344c1.753906 4.449219 6.734375 6.695312 11.230469 5.058594 4.492187-1.632813 6.871093-6.550782 5.355469-11.085938zm0 0"/><path d="m401.472656 420.078125c-2.027344-2.414063-5.191406-3.5625-8.296875-3.011719-3.105469.550782-5.679687 2.714844-6.757812 5.679688-1.074219 2.964844-.488281 6.277344 1.542969 8.691406l16.433593 19.582031c3.136719 3.734375 8.707031 4.21875 12.441407 1.085938 3.734374-3.136719 4.21875-8.703125 1.085937-12.4375zm0 0"/><path d="m470.761719 371.941406-22.148438-12.78125c-2.734375-1.601562-6.113281-1.617187-8.859375-.039062-2.75 1.578125-4.441406 4.503906-4.433594 7.671875.007813 3.167969 1.710938 6.089843 4.464844 7.65625l22.148438 12.78125c4.21875 2.398437 9.582031.941406 12.007812-3.257813 2.425782-4.203125 1.007813-9.578125-3.179687-12.03125zm0 0"/><path d="m497.234375 290.222656-25.175781-4.410156c-3.136719-.628906-6.367188.492188-8.445313 2.929688-2.074219 2.433593-2.671875 5.804687-1.554687 8.800781 1.113281 3 3.765625 5.160156 6.929687 5.648437l25.175781 4.414063c.511719.085937 1.027344.132812 1.542969.132812 4.582031.003907 8.402344-3.5 8.800781-8.0625.398438-4.5625-2.761718-8.667969-7.273437-9.460937zm0 0"/><path d="m461.828125 219.046875c.742187 4.21875 4.402344 7.296875 8.6875 7.300781.515625 0 1.035156-.046875 1.542969-.140625l25.175781-4.414062c3.109375-.546875 5.6875-2.714844 6.761719-5.675781 1.078125-2.964844.496094-6.28125-1.535156-8.695313-2.027344-2.417969-5.191407-3.566406-8.296876-3.019531l-25.175781 4.414062c-2.308593.40625-4.355469 1.714844-5.699219 3.632813s-1.867187 4.292969-1.460937 6.597656zm0 0"/><path d="m444.207031 154.023438c1.550781.003906 3.074219-.40625 4.414063-1.183594l22.148437-12.78125c4.1875-2.453125 5.609375-7.828125 3.179688-12.03125-2.425781-4.199219-7.789063-5.65625-12.007813-3.257813l-22.15625 12.78125c-3.460937 2-5.144531 6.070313-4.113281 9.929688 1.035156 3.859375 4.53125 6.542969 8.527344 6.542969zm0 0"/><path d="m404.40625 60.980469-16.4375 19.582031c-2.128906 2.398438-2.789062 5.765625-1.722656 8.792969 1.070312 3.023437 3.695312 5.234375 6.859375 5.765625 3.164062.535156 6.367187-.691406 8.367187-3.199219l16.449219-19.589844c2.027344-2.414062 2.609375-5.730469 1.53125-8.691406-1.078125-2.964844-3.65625-5.128906-6.761719-5.675781-3.105468-.550782-6.265625.601562-8.296875 3.015625zm0 0"/><path d="m339.839844 15.4375c-2.203125-.796875-4.628906-.6875-6.75.308594-2.121094.992187-3.761719 2.789062-4.558594 4.988281l-8.746094 24.03125c-1.179687 2.984375-.640625 6.375 1.402344 8.851563 2.042969 2.476562 5.265625 3.648437 8.421875 3.0625 3.15625-.585938 5.746094-2.839844 6.761719-5.886719l8.746094-24.027344c.804687-2.203125.703124-4.632813-.289063-6.757813s-2.785156-3.769531-4.988281-4.570312zm0 0"/></g><path d="m481.804688 256c0 126.757812-102.757813 229.515625-229.515626 229.515625-126.761718 0-229.519531-102.757813-229.519531-229.515625s102.757813-229.515625 229.519531-229.515625c126.757813 0 229.515626 102.757813 229.515626 229.515625zm0 0" fill="#84b5cb"/><path d="m437.667969 256c0 102.382812-82.996094 185.378906-185.378907 185.378906-102.382812 0-185.378906-82.996094-185.378906-185.378906s82.996094-185.378906 185.378906-185.378906c102.382813 0 185.378907 82.996094 185.378907 185.378906zm0 0" fill="#41767f"/><path d="m340.5625 256c.023438 43.390625-31.496094 80.363281-74.347656 87.210938-42.847656 6.847656-84.316406-18.464844-97.820313-59.699219-13.503906-41.238281 4.96875-86.175781 43.570313-105.996094 3.039062-1.488281 4.980468-4.5625 5.011718-7.945313v-54.8125c0-9.75 7.90625-17.65625 17.65625-17.65625h35.308594c9.753906 0 17.65625 7.90625 17.65625 17.65625v54.828126c.046875 3.382812 1.988282 6.453124 5.023438 7.945312 29.417968 15.109375 47.921875 45.398438 47.941406 78.46875zm0 0" fill="#f3d55b"/><path d="m252.289062 441.378906c-4.875 0-8.828124-3.953125-8.828124-8.828125v-44.136719c0-4.875 3.953124-8.828124 8.828124-8.828124s8.828126 3.953124 8.828126 8.828124v44.136719c0 4.875-3.953126 8.828125-8.828126 8.828125zm0 0" fill="#f9eab0"/><path d="m312.710938 430.722656c-3.710938.003906-7.027344-2.320312-8.296876-5.808594l-15.09375-41.488281c-1.078124-2.964843-.496093-6.277343 1.535157-8.695312 2.027343-2.417969 5.191406-3.566407 8.296875-3.019531 3.105468.546874 5.683594 2.710937 6.761718 5.675781l15.097657 41.492187c.984375 2.707032.585937 5.722656-1.066407 8.082032-1.652343 2.359374-4.351562 3.765624-7.234374 3.761718zm0 0" fill="#f9eab0"/><path d="m365.847656 400.046875c-2.613281 0-5.085937-1.15625-6.761718-3.160156l-28.375-33.808594c-3.007813-3.742187-2.472657-9.207031 1.207031-12.292969 3.683593-3.085937 9.15625-2.664062 12.316406.949219l28.375 33.808594c2.203125 2.628906 2.6875 6.296875 1.238281 9.40625-1.449218 3.113281-4.570312 5.101562-8 5.097656zm0 0" fill="#f9eab0"/><path d="m405.277344 353.050781c-1.546875.003907-3.070313-.40625-4.414063-1.183593l-38.230469-22.070313c-4.222656-2.4375-5.671874-7.835937-3.234374-12.0625 2.4375-4.222656 7.835937-5.671875 12.0625-3.234375l38.230468 22.070312c3.46875 1.992188 5.164063 6.070313 4.128906 9.9375-1.035156 3.863282-4.539062 6.550782-8.542968 6.542969zm0 0" fill="#f9eab0"/><path d="m426.269531 295.390625c-.515625 0-1.027343-.042969-1.535156-.132813l-43.464844-7.664062c-4.804687-.84375-8.011719-5.425781-7.164062-10.226562.84375-4.800782 5.421875-8.007813 10.226562-7.164063l43.464844 7.671875c4.488281.8125 7.621094 4.910156 7.222656 9.453125-.394531 4.542969-4.1875 8.039063-8.75 8.0625zm0 0" fill="#f9eab0"/><path d="m382.796875 241.699219c-4.5625-.023438-8.355469-3.515625-8.75-8.058594-.398437-4.546875 2.734375-8.644531 7.222656-9.457031l43.464844-7.667969c4.800781-.847656 9.382813 2.359375 10.226563 7.164063.847656 4.800781-2.359376 9.378906-7.164063 10.226562l-43.464844 7.660156c-.507812.085938-1.023437.132813-1.535156.132813zm0 0" fill="#f9eab0"/><path d="m367.046875 198.453125c-3.996094 0-7.492187-2.683594-8.527344-6.542969-1.035156-3.859375.652344-7.933594 4.113281-9.929687l38.230469-22.070313c4.226563-2.4375 9.628907-.988281 12.066407 3.238282 2.4375 4.222656.988281 9.625-3.238282 12.0625l-38.230468 22.066406c-1.34375.769531-2.867188 1.175781-4.414063 1.175781zm0 0" fill="#f9eab0"/><path d="m337.464844 163.195312c-3.425782-.003906-6.539063-1.992187-7.984375-5.097656-1.449219-3.109375-.96875-6.769531 1.230469-9.398437l28.375-33.808594c2-2.492187 5.195312-3.707031 8.347656-3.171875 3.15625.53125 5.773437 2.726562 6.847656 5.738281s.433594 6.371094-1.671875 8.777344l-28.375 33.808594c-1.679687 2-4.15625 3.15625-6.769531 3.152343zm0 0" fill="#f9eab0"/><path d="m167.109375 163.195312c-2.609375.003907-5.089844-1.152343-6.769531-3.152343l-28.371094-33.808594c-2.199219-2.390625-2.902344-5.796875-1.839844-8.863281 1.0625-3.070313 3.726563-5.304688 6.933594-5.824219 3.203125-.515625 6.4375.765625 8.410156 3.34375l28.375 33.808594c2.199219 2.628906 2.679688 6.289062 1.230469 9.398437-1.445313 3.105469-4.558594 5.09375-7.984375 5.097656zm0 0" fill="#f9eab0"/><path d="m137.53125 198.453125c-1.550781 0-3.070312-.40625-4.414062-1.175781l-38.234376-22.066406c-4.222656-2.4375-5.671874-7.839844-3.234374-12.0625 2.4375-4.226563 7.839843-5.675782 12.0625-3.238282l38.230468 22.070313c3.460938 1.996093 5.148438 6.070312 4.113282 9.929687-1.03125 3.859375-4.53125 6.542969-8.523438 6.542969zm0 0" fill="#f9eab0"/><path d="m121.78125 241.699219c-.515625 0-1.027344-.046875-1.535156-.132813l-43.46875-7.636718c-4.800782-.84375-8.007813-5.421876-7.164063-10.226563.847657-4.800781 5.425781-8.007813 10.226563-7.164063l43.46875 7.671876c4.488281.8125 7.617187 4.910156 7.222656 9.453124-.398438 4.542969-4.191406 8.039063-8.75 8.0625zm0 0" fill="#f9eab0"/><path d="m78.304688 295.390625c-4.558594-.023437-8.351563-3.519531-8.75-8.0625-.394532-4.542969 2.734374-8.640625 7.222656-9.453125l43.46875-7.671875c4.800781-.84375 9.378906 2.363281 10.226562 7.164063.84375 4.800781-2.363281 9.382812-7.164062 10.226562l-43.46875 7.664062c-.503906.089844-1.019532.132813-1.535156.132813zm0 0" fill="#f9eab0"/><path d="m99.296875 353.050781c-4 .007813-7.507813-2.679687-8.542969-6.542969-1.035156-3.867187.660156-7.945312 4.128906-9.9375l38.234376-22.070312c4.222656-2.4375 9.625-.988281 12.0625 3.234375 2.4375 4.226563.988281 9.625-3.238282 12.0625l-38.230468 22.070313c-1.339844.777343-2.863282 1.1875-4.414063 1.183593zm0 0" fill="#f9eab0"/><path d="m138.730469 400.046875c-3.433594.003906-6.550781-1.984375-8.003907-5.097656-1.449218-3.109375-.964843-6.777344 1.242188-9.40625l28.371094-33.808594c3.164062-3.613281 8.636718-4.035156 12.316406-.949219 3.679688 3.085938 4.214844 8.550782 1.207031 12.292969l-28.390625 33.808594c-1.671875 2-4.136718 3.15625-6.742187 3.160156zm0 0" fill="#f9eab0"/><path d="m191.863281 430.722656c-2.878906.003906-5.582031-1.402344-7.234375-3.761718-1.652344-2.359376-2.050781-5.375-1.0625-8.082032l15.09375-41.492187c1.667969-4.582031 6.734375-6.945313 11.316406-5.277344 4.582032 1.667969 6.945313 6.734375 5.28125 11.316406l-15.097656 41.488281c-1.269531 3.488282-4.585937 5.8125-8.296875 5.808594zm0 0" fill="#f9eab0"/></svg>