<svg height="512" viewBox="0 0 128 128" width="512" xmlns="http://www.w3.org/2000/svg"><g><path d="m7.75 112.346h41.5a13.9 13.9 0 0 1 13.9 13.9 0 0 0 0 1 0 0h-61.4a0 0 0 0 1 0 0v-7.9a6 6 0 0 1 6-6z" fill="#5f2e78"/><path d="m89.947 30.922h10.353a25.947 25.947 0 0 1 25.95 25.946 0 0 0 0 1 0 0h-62.25a0 0 0 0 1 0 0 25.947 25.947 0 0 1 25.947-25.946z" fill="#5f2e78"/><path d="m89.947 30.922h10.353a25.859 25.859 0 0 1 9.655 1.863v-16.2a14.833 14.833 0 0 0 -29.666 0v16.2a25.859 25.859 0 0 1 9.658-1.863z" fill="#00a3b4"/><circle cx="15.765" cy="33.765" fill="#5f2e78" r="14.015"/><path d="m15.765 39.78a6.015 6.015 0 1 1 6.015-6.015 6.021 6.021 0 0 1 -6.015 6.015z" fill="#c1f7ff"/><g fill="#c1f7ff"><path d="m80.292 25.912v-9.328a14.772 14.772 0 0 1 .984-5.277l-55.292 12.893a13.971 13.971 0 0 1 3.194 13.631z"/><path d="m15.765 47.78a13.933 13.933 0 0 1 -7-1.885v66.452h14v-66.453a13.924 13.924 0 0 1 -7 1.886z"/></g><path d="m38.308 102.167a5.858 5.858 0 0 1 5.858 5.858v4.322a0 0 0 0 1 0 0h-11.716a0 0 0 0 1 0 0v-4.322a5.858 5.858 0 0 1 5.858-5.858z" fill="#00a3b4"/><path d="m95.125 73.75a11.917 11.917 0 0 1 -11.917-11.917v-4.965h23.834v4.965a11.917 11.917 0 0 1 -11.917 11.917z" fill="#ffe72c"/><g fill="#ff9400"><path d="m95.125 92.125a1.75 1.75 0 0 1 -1.75-1.75v-7.375a1.75 1.75 0 0 1 3.5 0v7.375a1.75 1.75 0 0 1 -1.75 1.75z"/><path d="m107.66 88.767a1.749 1.749 0 0 1 -1.517-.875l-3.688-6.387a1.75 1.75 0 1 1 3.031-1.75l3.688 6.387a1.751 1.751 0 0 1 -1.514 2.625z"/><path d="m116.831 79.592a1.73 1.73 0 0 1 -.873-.235l-6.387-3.687a1.75 1.75 0 1 1 1.75-3.031l6.387 3.687a1.75 1.75 0 0 1 -.877 3.266z"/><path d="m120.191 67.059h-7.375a1.75 1.75 0 0 1 0-3.5h7.375a1.75 1.75 0 0 1 0 3.5z"/><path d="m77.434 67.059h-7.375a1.75 1.75 0 0 1 0-3.5h7.375a1.75 1.75 0 0 1 0 3.5z"/><path d="m73.419 79.592a1.75 1.75 0 0 1 -.877-3.266l6.387-3.687a1.75 1.75 0 1 1 1.75 3.031l-6.387 3.687a1.73 1.73 0 0 1 -.873.235z"/><path d="m82.59 88.767a1.751 1.751 0 0 1 -1.514-2.625l3.688-6.387a1.75 1.75 0 1 1 3.031 1.75l-3.688 6.387a1.749 1.749 0 0 1 -1.517.875z"/></g></g></svg>