<?xml version="1.0"?>
<svg xmlns="http://www.w3.org/2000/svg" width="512" height="512" viewBox="0 0 128 128"><g><path d="M111.708,31.639V16.584a16.574,16.574,0,0,0-31.7-6.778L26.523,22.273A15.751,15.751,0,1,0,7.015,46.87v63.764A7.759,7.759,0,0,0,0,118.347v7.9A1.75,1.75,0,0,0,1.75,128h61.4a1.749,1.749,0,0,0,1.75-1.75A15.672,15.672,0,0,0,49.246,110.6H45.917v-2.573a7.609,7.609,0,0,0-15.217,0V110.6H24.515V46.87A15.841,15.841,0,0,0,30.5,39.314l48.039-11.2v3.522A27.73,27.73,0,0,0,62.25,56.868,1.75,1.75,0,0,0,64,58.618H81.458v3.215a13.667,13.667,0,0,0,27.334,0V58.618H126.25a1.75,1.75,0,0,0,1.75-1.75A27.73,27.73,0,0,0,111.708,31.639ZM61.275,124.5H3.5v-6.154a4.255,4.255,0,0,1,4.25-4.25h41.5A12.173,12.173,0,0,1,61.275,124.5ZM34.2,108.024a4.109,4.109,0,0,1,8.217,0V110.6H34.2ZM21.015,110.6h-10.5V48.612a15.471,15.471,0,0,0,10.5,0ZM15.765,46.03A12.265,12.265,0,1,1,28.03,33.765,12.279,12.279,0,0,1,15.765,46.03ZM31.429,35.505a15.878,15.878,0,0,0,.1-1.74,15.651,15.651,0,0,0-2.5-8.483l49.781-11.6a16.586,16.586,0,0,0-.271,2.907v7.939ZM82.042,16.584a13.083,13.083,0,0,1,26.166,0V30.328a27.593,27.593,0,0,0-7.905-1.156H89.947a27.593,27.593,0,0,0-7.905,1.156Zm23.25,45.249a10.167,10.167,0,0,1-20.334,0V58.618h20.334Zm1.75-6.715H65.812A24.231,24.231,0,0,1,89.947,32.672H100.3a24.229,24.229,0,0,1,24.134,22.446Z"/><path d="M15.765,26a7.765,7.765,0,1,0,7.765,7.765A7.773,7.773,0,0,0,15.765,26Zm0,12.03a4.265,4.265,0,1,1,4.265-4.265A4.27,4.27,0,0,1,15.765,38.03Z"/><path d="M95.125,81.25A1.75,1.75,0,0,0,93.375,83v7.375a1.75,1.75,0,0,0,3.5,0V83A1.75,1.75,0,0,0,95.125,81.25Z"/><path d="M105.486,79.755a1.75,1.75,0,1,0-3.031,1.75l3.688,6.387a1.75,1.75,0,0,0,3.031-1.75Z"/><path d="M117.708,76.326l-6.387-3.687a1.75,1.75,0,1,0-1.75,3.031l6.387,3.687a1.73,1.73,0,0,0,.873.235,1.75,1.75,0,0,0,.877-3.266Z"/><path d="M120.191,63.559h-7.375a1.75,1.75,0,0,0,0,3.5h7.375a1.75,1.75,0,0,0,0-3.5Z"/><path d="M79.184,65.309a1.75,1.75,0,0,0-1.75-1.75H70.059a1.75,1.75,0,0,0,0,3.5h7.375A1.751,1.751,0,0,0,79.184,65.309Z"/><path d="M81.32,73.279a1.749,1.749,0,0,0-2.391-.64l-6.387,3.687a1.75,1.75,0,0,0,.877,3.266,1.73,1.73,0,0,0,.873-.235l6.387-3.687A1.751,1.751,0,0,0,81.32,73.279Z"/><path d="M87.154,79.114a1.749,1.749,0,0,0-2.39.641l-3.688,6.387a1.75,1.75,0,1,0,3.031,1.75L87.8,81.505A1.751,1.751,0,0,0,87.154,79.114Z"/></g></svg>
