<svg height="512pt" viewBox="0 -57 512 512" width="512pt" xmlns="http://www.w3.org/2000/svg"><g fill-rule="evenodd"><path d="m479.089844 389.257812v-24.976562l-32.824219-22.632812-32.792969 22.632812v24.976562c0 4.792969 3.914063 8.742188 8.730469 8.742188h48.152344c4.792969 0 8.734375-3.949219 8.734375-8.742188zm0 0" fill="#b3b3b3"/><path d="m102.179688 389.257812v-24.976562l-32.359376-16.464844-33.257812 16.464844v24.976562c0 4.792969 3.910156 8.742188 8.730469 8.742188h48.152343c4.789063 0 8.734376-3.949219 8.734376-8.742188zm0 0" fill="#b3b3b3"/><path d="m55.71875 364.28125h-19.15625v24.976562c0 4.796876 3.910156 8.742188 8.730469 8.742188h21.140625c-4.816406 0-8.761719-3.945312-8.761719-8.742188v-24.976562zm0 0" fill="#888b99"/><path d="m432.65625 364.28125h-19.183594v24.976562c0 4.796876 3.914063 8.742188 8.730469 8.742188h21.140625c-4.816406 0-8.730469-3.945312-8.730469-8.742188v-24.976562zm0 0" fill="#888b99"/><path d="m512 331.355469-262.761719-18.570313-249.238281 18.570313v16.636719c0 8.980468 7.300781 16.289062 16.265625 16.289062h479.46875c8.9375 0 16.265625-7.308594 16.265625-16.289062zm0 0" fill="#e6e6e6"/><path d="m19.1875 347.992188v-16.636719h-19.1875v16.636719c0 8.980468 7.300781 16.289062 16.265625 16.289062h19.15625c-8.9375 0-16.234375-7.308594-16.234375-16.289062zm0 0" fill="#b3b3b3"/><path d="m512 331.355469v-315.066407c0-8.976562-7.328125-16.289062-16.265625-16.289062h-479.46875c-8.964844 0-16.265625 7.3125-16.265625 16.289062v315.066407zm0 0" fill="#616d80"/><path d="m396.535156 287.285156v-242.601562c0-5.261719-4.292968-9.589844-9.550781-9.589844h-347.621094c-5.285156 0-9.578125 4.328125-9.578125 9.589844v242.601562c0 5.265625 4.292969 9.59375 9.578125 9.59375h347.621094c5.257813 0 9.550781-4.328125 9.550781-9.59375zm0 0" fill="#bae0f2"/><path d="m362.808594 235.523438v-139.808594c0-4.652344-3.796875-8.425782-8.441406-8.425782h-12.613282c-4.613281 0-8.410156 3.773438-8.410156 8.425782v139.808594c0 4.652343 3.796875 8.453124 8.410156 8.453124h12.613282c4.644531 0 8.441406-3.800781 8.441406-8.453124zm0 0" fill="#616d80"/><path d="m482.125 74.65625c0-5.730469-4.671875-10.410156-10.394531-10.410156h-31.949219c-5.722656 0-10.394531 4.679687-10.394531 10.410156v19.273438c0 5.703124 4.671875 10.378906 10.394531 10.378906h31.949219c5.722656 0 10.394531-4.675782 10.394531-10.378906zm0 0" fill="#55cf63"/><path d="m475.089844 133.964844h-38.695313c-3.855469 0-7.007812 3.15625-7.007812 7.046875v13.011719c0 3.859374 3.15625 7.019531 7.007812 7.019531h38.695313c3.855468 0 7.039062-3.160157 7.039062-7.019531v-13.011719c-.003906-3.890625-3.1875-7.046875-7.039062-7.046875zm0 0" fill="#e6e6e6"/><path d="m475.089844 190.722656h-38.695313c-3.855469 0-7.007812 3.160156-7.007812 7.019532v13.011718c0 3.890625 3.15625 7.050782 7.007812 7.050782h38.695313c3.855468 0 7.039062-3.160157 7.039062-7.050782v-13.011718c-.003906-3.859376-3.1875-7.019532-7.039062-7.019532zm0 0" fill="#e6e6e6"/><path d="m482.125 254.472656c0-3.859375-3.183594-7.015625-7.035156-7.015625h-38.695313c-3.855469 0-7.007812 3.15625-7.007812 7.015625v13.042969c0 3.859375 3.152343 7.019531 7.007812 7.019531h38.695313c3.851562 0 7.035156-3.160156 7.035156-7.019531zm0 0" fill="#e6e6e6"/><path d="m63.574219 287.285156v-242.601562c0-5.261719 4.292969-9.589844 9.578125-9.589844h-33.789063c-5.285156 0-9.578125 4.328125-9.578125 9.589844v242.601562c0 5.265625 4.292969 9.59375 9.578125 9.59375h33.789063c-5.285156 0-9.578125-4.328125-9.578125-9.59375zm0 0" fill="#93baf0"/><path d="m19.1875 331.355469v-315.066407c0-8.976562 7.296875-16.289062 16.234375-16.289062h-19.15625c-8.964844 0-16.265625 7.3125-16.265625 16.289062v315.066407zm0 0" fill="#3f4c63"/><g fill="#b3b3b3"><path d="m444.105469 154.023438v-13.011719c0-3.890625 3.152343-7.046875 7.007812-7.046875h-14.71875c-3.855469 0-7.007812 3.15625-7.007812 7.046875v13.011719c0 3.859374 3.152343 7.019531 7.007812 7.019531h14.71875c-3.855469 0-7.007812-3.160157-7.007812-7.019531zm0 0"/><path d="m444.105469 210.757812v-13.015624c0-3.859376 3.152343-7.015626 7.007812-7.015626h-14.71875c-3.855469 0-7.007812 3.15625-7.007812 7.015626v13.015624c0 3.886719 3.152343 7.046876 7.007812 7.046876h14.71875c-3.855469 0-7.007812-3.160157-7.007812-7.046876zm0 0"/><path d="m444.105469 267.515625v-13.039063c0-3.863281 3.152343-7.019531 7.007812-7.019531h-14.71875c-3.855469 0-7.007812 3.15625-7.007812 7.019531v13.039063c0 3.863281 3.152343 7.019531 7.007812 7.019531h14.71875c-3.855469 0-7.007812-3.15625-7.007812-7.019531zm0 0"/></g><path d="m442.585938 93.929688v-19.273438c0-5.730469 4.671874-10.410156 10.398437-10.410156h-13.199219c-5.726562 0-10.398437 4.679687-10.398437 10.410156v19.273438c0 5.703124 4.671875 10.378906 10.398437 10.378906h13.199219c-5.726563 0-10.398437-4.675782-10.398437-10.378906zm0 0" fill="#32a352"/></g></svg>