<?xml version="1.0" encoding="iso-8859-1"?>
<!-- Generator: Adobe Illustrator 19.0.0, SVG Export Plug-In . SVG Version: 6.00 Build 0)  -->
<svg version="1.1" id="Capa_1" xmlns="http://www.w3.org/2000/svg" xmlns:xlink="http://www.w3.org/1999/xlink" x="0px" y="0px"
	 viewBox="0 0 511.972 511.972" style="enable-background:new 0 0 511.972 511.972;" xml:space="preserve">
<g transform="translate(-1)">
	<g>
		<g>
			<path d="M507.74,418.379L288.127,56.058c-6.601-10.863-18.392-17.496-31.104-17.496s-24.503,6.632-31.104,17.496L6.307,418.383
				c-6.862,11.152-7.084,25.161-0.579,36.525c6.383,11.501,18.538,18.597,31.692,18.5h439.212
				c13.101,0.028,25.198-7.013,31.646-18.418C514.724,443.586,514.519,429.59,507.74,418.379z M493.448,446.533L493.448,446.533
				c-3.388,6.101-9.838,9.864-16.817,9.808H37.419c-6.939,0.029-13.353-3.688-16.777-9.723s-3.324-13.448,0.26-19.389
				L240.511,64.908c3.508-5.762,9.766-9.279,16.513-9.279s13.004,3.517,16.513,9.279L493.14,427.225
				C496.772,433.119,496.891,440.527,493.448,446.533z"/>
			<path d="M271.619,94.675c-3.091-5.105-8.625-8.224-14.593-8.225s-11.503,3.117-14.595,8.221L49.269,413.358
				c-3.195,5.27-3.302,11.853-0.278,17.223c3.023,5.37,8.707,8.693,14.87,8.694h386.321c6.163,0,11.848-3.322,14.873-8.692
				c3.025-5.37,2.921-11.953-0.273-17.225L271.619,94.675z M265.557,422.208c-15.035-1.005-26.455-13.931-25.6-28.975
				c0-5.854,5.821-12.388,12.563-19.95c8.742-8.621,15.568-18.99,20.029-30.429c10.282,14.991,16.677,32.303,18.608,50.379
				C292.012,408.277,280.591,421.203,265.557,422.208z M302.276,416.278c3.875-7.064,5.92-14.987,5.947-23.044
				c0-25.275-18.938-60.842-36.479-79.304c-2.604-2.738-6.699-3.439-10.065-1.722c-3.366,1.717-5.203,5.443-4.514,9.159
				c3.242,17.425-6.779,28.662-17.383,40.563c-8.304,9.312-16.892,18.946-16.892,31.304c0.022,6.703,1.432,13.328,4.141,19.459
				c-23.58-8.849-47.653-25.895-53.828-58.83c10.297,5.015,21.487,7.937,32.921,8.596c2.506,0.174,4.96-0.776,6.696-2.592
				c1.741-1.806,2.601-4.287,2.35-6.783c-0.248-2.322-0.377-4.656-0.388-6.992c0-34.396,20.121-79.637,49.658-114.325
				c2.85,34.121,27.154,58.458,47.417,78.75c16.367,16.396,30.5,30.55,30.5,45.217C342.041,382.033,326.364,405.715,302.276,416.278
				z M325.39,422.222c21.215-15.538,33.834-40.192,34.033-66.488c0-21.729-17.237-38.992-35.492-57.275
				c-24.196-24.233-49.212-49.288-41.146-87.834c0.763-3.646-0.927-7.366-4.176-9.19c-3.249-1.823-7.305-1.328-10.02,1.223
				c-41.158,38.675-70.071,96.579-70.858,141.563c-10.532-1.66-20.382-6.255-28.421-13.258c-2.413-2.512-6.11-3.305-9.341-2.005
				c-3.231,1.301-5.347,4.434-5.347,7.917c-1.301,36.368,19.285,69.986,52.269,85.359L63.84,422.25l0.021-0.042l193.162-318.688
				l193.158,318.688L325.39,422.222z"/>
		</g>
	</g>
</g>
<g>
</g>
<g>
</g>
<g>
</g>
<g>
</g>
<g>
</g>
<g>
</g>
<g>
</g>
<g>
</g>
<g>
</g>
<g>
</g>
<g>
</g>
<g>
</g>
<g>
</g>
<g>
</g>
<g>
</g>
</svg>
