<?xml version="1.0" encoding="iso-8859-1"?>
<!-- Generator: Adobe Illustrator 19.0.0, SVG Export Plug-In . SVG Version: 6.00 Build 0)  -->
<svg version="1.1" id="Capa_1" xmlns="http://www.w3.org/2000/svg" xmlns:xlink="http://www.w3.org/1999/xlink" x="0px" y="0px"
	 viewBox="0 0 512 512" style="enable-background:new 0 0 512 512;" xml:space="preserve">
<g>
	<g>
		<g>
			<path d="M477.867,332.8h-25.6c0-9.426-7.641-17.067-17.067-17.067h-19.439c-3.024-5.263-8.624-8.515-14.694-8.533h-51.2
				c-6.07,0.018-11.67,3.27-14.694,8.533h-19.439c-9.426,0-17.067,7.641-17.067,17.067H192c-7.069,0-12.8-5.731-12.8-12.8V187.733
				c9.426,0,17.067-7.641,17.067-17.067v-19.447c5.263-3.02,8.516-8.618,8.533-14.686v-51.2c-0.017-6.07-3.269-11.671-8.533-14.694
				V51.2c0-9.426-7.641-17.067-17.067-17.067v-25.6C179.2,3.82,175.38,0,170.667,0H59.734C55.021,0,51.2,3.82,51.2,8.533v25.6
				c-9.426,0-17.067,7.641-17.067,17.067v19.439c-5.264,3.023-8.517,8.624-8.533,14.694v51.2c0.018,6.068,3.27,11.666,8.533,14.686
				v19.447c0,9.426,7.641,17.067,17.067,17.067V320c0.015,34.649,12.869,68.063,36.079,93.79c0.043,0.068,0.051,0.145,0.094,0.213
				c0.332,0.398,0.701,0.763,1.101,1.092c13.234,14.457,29.334,26,47.275,33.894l0.222,0.102
				c17.669,7.724,36.746,11.711,56.03,11.708h106.667c0,9.426,7.641,17.067,17.067,17.067h19.439
				c3.033,5.254,8.628,8.503,14.694,8.533h51.2c6.067-0.031,11.661-3.279,14.694-8.533H435.2c9.426,0,17.067-7.641,17.067-17.067
				h25.6c4.713,0,8.533-3.821,8.533-8.533V341.333C486.4,336.621,482.58,332.8,477.867,332.8z M68.267,17.067h93.867v17.067H68.267
				V17.067z M51.2,51.2h128v17.067h-128V51.2z M42.667,136.533v-51.2h145.067v51.2H42.667z M51.2,153.6h128v17.067h-128V153.6z
				 M68.267,320V187.733h93.867V320c0.039,2.721,0.456,5.423,1.237,8.03l-14.558,14.558l-41.054,16.418
				c-4.195,1.679-6.354,6.338-4.924,10.624l6.477,19.422l-13.286,8.892C78.057,375.943,68.25,348.406,68.267,320z M107.921,410.513
				l16.29-10.888c3.198-2.137,4.571-6.148,3.354-9.796l-5.973-17.92l23.475-9.438v30.063c0,2.263,0.9,4.433,2.5,6.033l11.034,11.034
				l-21.214,21.239C126.636,425.52,116.712,418.674,107.921,410.513z M298.667,443.733H192c-12.743-0.002-25.409-1.979-37.547-5.862
				l22.238-22.238c1.602-1.601,2.503-3.773,2.503-6.037s-0.9-4.437-2.503-6.037l-14.558-14.566v-35.593l10.692-10.701
				c5.335,4.594,12.134,7.136,19.174,7.168h106.667V443.733z M332.8,460.8h-17.067v-128H332.8V460.8z M401.067,469.333h-51.2
				V324.267h51.2V469.333z M435.2,460.8h-17.067v-128H435.2V460.8z M469.334,443.733h-17.067v-93.867h17.067V443.733z"/>
			<path d="M102.571,458.445l-18.176-27.674c-1.679-2.56-4.533-4.103-7.595-4.105l-5.12,0.247l-22.443,34.185
				c-1.651,2.304-3.066,4.768-4.224,7.356c-1.552,3.684-2.35,7.642-2.347,11.64c0.032,8.349,3.461,16.325,9.498,22.093
				c6.633,6.335,15.464,9.853,24.636,9.813h0.981c14.945-0.271,27.975-10.234,32.154-24.585c1.981-7.585,0.802-15.649-3.268-22.349
				C105.438,462.831,104.021,460.646,102.571,458.445z M93.491,482.927c-2.176,7.11-8.726,11.977-16.162,12.006
				c-4.899,0.139-9.658-1.643-13.261-4.966c-2.725-2.566-4.29-6.13-4.335-9.873c0.004-1.732,0.349-3.445,1.015-5.043
				c0.748-1.547,1.633-3.023,2.645-4.412L76.8,450.253l11.529,17.553c1.195,1.809,2.381,3.601,3.413,5.436
				C93.696,476.066,94.334,479.597,93.491,482.927z"/>
			<path d="M401.067,170.667c47.128,0,85.333-38.205,85.333-85.333C486.348,38.227,448.174,0.052,401.067,0
				c-47.128,0-85.333,38.205-85.333,85.333S353.939,170.667,401.067,170.667z M401.067,17.067c37.703,0,68.267,30.564,68.267,68.267
				c-0.042,37.685-30.582,68.224-68.267,68.267c-37.703,0-68.267-30.564-68.267-68.267S363.364,17.067,401.067,17.067z"/>
			<path d="M401.067,102.4c4.713,0,8.533-3.821,8.533-8.533v-51.2c0-4.713-3.821-8.533-8.533-8.533c-4.713,0-8.533,3.82-8.533,8.533
				v51.2C392.534,98.579,396.354,102.4,401.067,102.4z"/>
			<path d="M401.067,136.533c4.713,0,8.533-3.82,8.533-8.533v-8.533c0-4.713-3.821-8.533-8.533-8.533
				c-4.713,0-8.533,3.82-8.533,8.533V128C392.534,132.713,396.354,136.533,401.067,136.533z"/>
		</g>
	</g>
</g>
<g>
</g>
<g>
</g>
<g>
</g>
<g>
</g>
<g>
</g>
<g>
</g>
<g>
</g>
<g>
</g>
<g>
</g>
<g>
</g>
<g>
</g>
<g>
</g>
<g>
</g>
<g>
</g>
<g>
</g>
</svg>
