<svg height="512" viewBox="0 0 58 60" width="512" xmlns="http://www.w3.org/2000/svg"><g id="007---Siren" fill="none"><path id="Shape" d="m29 7c-11.045695 0-20 8.954305-20 20v23h40v-23c0-11.045695-8.954305-20-20-20z" fill="#e64c3c"/><path id="Shape" d="m49 52h-40c-.55228475 0-1-.4477153-1-1v-24c.00000017-11.5979796 9.4020204-20.99999969 21-20.99999969s20.9999998 9.40202009 21 20.99999969v24c0 .5522847-.4477153 1-1 1zm-39-2h38v-23c0-10.4934102-8.5065898-19-19-19s-19 8.5065898-19 19z" fill="#fb7b76"/><rect id="Rectangle-path" fill="#7f8284" height="6" rx="2" width="58" y="54"/><path id="Shape" d="m5 48h48c1.1045695 0 2 .8954305 2 2v4h-52v-4c0-1.1045695.8954305-2 2-2z" fill="#bdc3c7"/><path id="Shape" d="m41 17.43c-.2872272-.0003637-.5604302-.1242157-.75-.34-2.8453792-3.2330508-6.9431692-5.0870731-11.25-5.09-.5522847 0-1-.4477153-1-1s.4477153-1 1-1c4.881285.0036544 9.525481 2.1053808 12.75 5.77.2590557.2948776.3216481.7140403.1600393 1.0717346-.1616089.3576943-.5175315.5877689-.9100393.5882654z" fill="#fff"/><path id="Shape" d="m29 41c-.5522847 0-1-.4477153-1-1v-12c0-.5522847.4477153-1 1-1s1 .4477153 1 1v12c0 .5522847-.4477153 1-1 1z" fill="#802f34"/><path id="Shape" d="m26 40h6c1.1045695 0 2 .8954305 2 2v6h-10v-6c0-1.1045695.8954305-2 2-2z" fill="#c03a2b"/><g fill="#fb7b76"><path id="Shape" d="m21 6c-.3345191-.00173065-.6460165-.17061479-.83-.45l-2-3c-.2380487-.29552844-.2883109-.70033428-.1297641-1.04510545s.4985809-.570095.8778815-.58172867c.3793005-.01163368.7325045.19242758.9118826.52683412l2 3c.2017791.30638716.2195909.69866414.0464086 1.02207687-.1731823.32341272-.5095512.52603162-.8764086.52792313z"/><path id="Shape" d="m12.9 9.14c-.44 0-.31 0-3.49-2.33-.28938513-.2107867-.44433465-.55994677-.40648058-.91595499s.2627608-.66477848.59-.81.70709548-.10483171.99648058.10595499l2.91 2.14c.3532742.25567996.5001238.710808.3629062 1.12474791-.1372177.4139399-.5268566.69122643-.9629062.68525209z"/><path id="Shape" d="m7.46 17c-.2 0 0 0-3.74-1.05-.34833395-.1000344-.6168401-.3783039-.70437477-.7299871s.01920072-.7233511.28-.975.63604082-.3450473.98437477-.2450129l3.46 1c.55228475.0773199.93731986.5877153.86 1.14s-.58771525.9373199-1.14.86z"/><path id="Shape" d="m38 6c-.3668574-.00189151-.7032263-.20451041-.8764086-.52792313-.1731823-.32341273-.1553705-.71568971.0464086-1.02207687l2-3c.3239123-.40212479.9007244-.49151293 1.3311547-.20628803s.5729246.8512619.3288453 1.30628803l-2 3c-.1839835.27938521-.4954809.44826935-.83.45z"/><path id="Shape" d="m46.1 9.14c-.4360496.00597434-.8256885-.27131219-.9629062-.68525209-.1372176-.41393991.009632-.86906795.3629062-1.12474791l2.91-2.14c.2893851-.21078671.6692414-.25117653.9964806-.10595501.3272392.14522153.5521459.45399179.59.81000002.0378541.35600822-.1170955.7051683-.4064806.91595499-3.18 2.33-3.06 2.33-3.49 2.33z"/><path id="Shape" d="m51.54 17c-.5522847.0773199-1.0626801-.3077153-1.14-.86s.3077153-1.0626801.86-1.14l3.46-1c.5522847-.1546397 1.1253602.1677153 1.28.72.1546397.5522847-.1677153 1.1253603-.72 1.28-3.75 1.06-3.54 1-3.74 1z"/></g><path id="Shape" d="m22 35h-4c-.5522847 0-1-.4477153-1-1v-12c0-.5522847.4477153-1 1-1h4c3.8659932 0 7 3.1340068 7 7s-3.1340068 7-7 7z" fill="#f0c419"/><path id="Shape" d="m36 35h4c.5522847 0 1-.4477153 1-1v-12c0-.5522847-.4477153-1-1-1h-4c-3.8659932 0-7 3.1340068-7 7s3.1340068 7 7 7z" fill="#f29c1f"/></g></svg>