<svg height="512" viewBox="0 0 60 61" width="512" xmlns="http://www.w3.org/2000/svg"><g id="007---Siren"><path id="Shape" d="m3 61h54c1.6568542 0 3-1.3431458 3-3v-2c0-1.6568542-1.3431458-3-3-3v-3c0-1.6568542-1.3431458-3-3-3h-3v-20c-.0000002-11.5979796-9.4020204-20.99999969-21-20.99999969s-20.99999983 9.40202009-21 20.99999969v20h-3c-1.65685425 0-3 1.3431458-3 3v3c-1.65685425 0-3 1.3431458-3 3v2c0 1.6568542 1.34314575 3 3 3zm8-34c0-10.4934102 8.5065898-19 19-19s19 8.5065898 19 19v20h-13v-5c0-1.6568542-1.3431458-3-3-3h-2v-5.73c1.5147246 1.7299881 3.7006045 2.7245634 6 2.73h4c1.1045695 0 2-.8954305 2-2v-12c0-1.1045695-.8954305-2-2-2h-4c-2.9130602.0026107-5.5944491 1.5884607-7 4.14-1.4055509-2.5515393-4.0869398-4.1373893-7-4.14h-4c-1.1045695 0-2 .8954305-2 2v12c0 1.1045695.8954305 2 2 2h4c2.2993955-.0054366 4.4852754-1.0000119 6-2.73v5.73h-2c-1.6568542 0-3 1.3431458-3 3v5h-13zm22 14c.5522847 0 1 .4477153 1 1v5h-8v-5c0-.5522847.4477153-1 1-1zm-2-13c0-3.3137085 2.6862915-6 6-6h4v12h-4c-3.3137085 0-6-2.6862915-6-6zm-2 0c0 3.3137085-2.6862915 6-6 6h-4v-12h4c3.3137085 0 6 2.6862915 6 6zm-24 22c0-.5522847.44771525-1 1-1h48c.5522847 0 1 .4477153 1 1v3h-50zm-3 6c0-.5522847.44771525-1 1-1h54c.5522847 0 1 .4477153 1 1v2c0 .5522847-.4477153 1-1 1h-54c-.55228475 0-1-.4477153-1-1z"/><path id="Shape" d="m30 12c4.3068308.0029269 8.4046208 1.8569492 11.25 5.09.1895698.2157843.4627728.3396363.75.34.3925078-.0004965.7484304-.2305711.9100393-.5882654.1616088-.3576943.0990164-.776857-.1600393-1.0717346-3.224519-3.6646192-7.868715-5.7663456-12.75-5.77-.5522847 0-1 .4477153-1 1s.4477153 1 1 1z"/></g></svg>
