<svg height="512pt" viewBox="0 0 512 512.00013" width="512pt" xmlns="http://www.w3.org/2000/svg" xmlns:xlink="http://www.w3.org/1999/xlink"><linearGradient id="a" gradientUnits="userSpaceOnUse" x1="-.000184" x2="511.999816" y1="256.000127" y2="256.000127"><stop offset="0" stop-color="#80d8ff"/><stop offset="1" stop-color="#ea80fc"/></linearGradient><path d="m506.300781 248.128906-235.980469-242.089844c-7.859374-8.0625-20.804687-8.042968-28.640624 0l-235.980469 242.089844c-12.320313 12.636719-3.347657 33.960938 14.320312 33.960938h59.3125v209.910156c0 11.046875 8.953125 20 20 20h313.335938c11.042969 0 19.996093-8.953125 19.996093-20v-209.910156h59.316407c17.644531 0 26.652343-21.308594 14.320312-33.960938zm-93.632812-6.039062c-11.046875 0-20 8.953125-20 20v209.910156h-273.339844v-209.910156c0-11.046875-8.953125-20-19.996094-20h-31.890625l188.558594-193.441406 188.554688 193.441406zm-131.667969 128.085937c0 13.808594-11.195312 25-25 25-13.808594 0-25-11.191406-25-25 0-13.808593 11.191406-25 25-25 13.804688 0 25 11.191407 25 25zm-25-150.617187c40.175781 0 77.984375 15.679687 106.457031 44.15625 7.8125 7.8125 7.8125 20.476562 0 28.285156-7.808593 7.8125-20.472656 7.808594-28.28125 0-20.921875-20.921875-48.6875-32.441406-78.175781-32.441406-29.492188 0-57.257812 11.519531-78.175781 32.441406-7.8125 7.8125-20.476563 7.8125-28.285157 0-7.808593-7.8125-7.8125-20.472656 0-28.285156 28.476563-28.476563 66.285157-44.15625 106.460938-44.15625zm70.15625 90.460937c7.808594 7.8125 7.808594 20.472657 0 28.285157-7.8125 7.808593-20.476562 7.808593-28.285156 0-11.210938-11.207032-26.082032-17.382813-41.875-17.382813-15.792969 0-30.660156 6.171875-41.871094 17.382813-7.8125 7.808593-20.472656 7.808593-28.285156 0-7.808594-7.8125-7.808594-20.472657 0-28.285157 18.765625-18.761719 43.679687-29.097656 70.15625-29.097656 26.476562 0 51.394531 10.335937 70.160156 29.097656zm0 0" fill="url(#a)"/></svg>