<?xml version="1.0" encoding="iso-8859-1"?>
<!-- Generator: Adobe Illustrator 19.0.0, SVG Export Plug-In . SVG Version: 6.00 Build 0)  -->
<svg version="1.1" id="Capa_1" xmlns="http://www.w3.org/2000/svg" xmlns:xlink="http://www.w3.org/1999/xlink" x="0px" y="0px"
	 viewBox="0 0 512 512" style="enable-background:new 0 0 512 512;" xml:space="preserve">
<g>
	<g>
		<g>
			<path d="M494.933,462.37V8.533c0-4.713-3.82-8.533-8.533-8.533H25.6c-4.713,0-8.533,3.82-8.533,8.533V462.37
				C5.32,466.508-1.73,478.514,0.381,490.788C2.491,503.061,13.146,512.024,25.6,512h460.8c12.454,0.024,23.109-8.939,25.219-21.212
				C513.73,478.514,506.68,466.508,494.933,462.37z M477.867,17.067v17.067H324.105c-4.878-6.466-10.643-12.212-17.126-17.067
				H477.867z M322.304,404.83l124.348,55.97H65.348l124.314-55.953c9.212-4.099,15.145-13.239,15.138-23.322V153.438
				c30.269,22.971,72.132,22.971,102.4,0v228.087C307.189,391.595,313.108,400.727,322.304,404.83z M329.259,389.248
				c-3.046-1.359-5.004-4.387-4.992-7.723V136.311c3.621-4.826,6.719-10.024,9.242-15.505l144.358-64.939v400.265L329.259,389.248z
				 M334.157,51.2h112.478L340.113,99.123C342.926,82.912,340.853,66.23,334.157,51.2z M256,17.067
				c37.703,0,68.267,30.564,68.267,68.267S293.703,153.6,256,153.6s-68.267-30.564-68.267-68.267
				C187.776,47.648,218.315,17.109,256,17.067z M34.133,17.067h170.888c-6.483,4.855-12.249,10.6-17.126,17.067H34.133V17.067z
				 M171.869,99.115L65.365,51.2h112.478C171.142,66.225,169.063,82.904,171.869,99.115z M34.133,55.868l144.358,64.939
				c2.523,5.481,5.62,10.679,9.242,15.505v245.214c0.007,3.351-1.969,6.388-5.035,7.74L34.133,456.132V55.868z M486.4,494.933H25.6
				c-4.713,0-8.533-3.82-8.533-8.533s3.82-8.533,8.533-8.533h460.8c4.713,0,8.533,3.82,8.533,8.533S491.113,494.933,486.4,494.933z"
				/>
			<path d="M160.597,131.516l-85.333-38.4c-5.281-2.374-11.405-1.908-16.266,1.236c-4.861,3.144-7.797,8.539-7.798,14.329V230.4
				c0,9.426,7.641,17.067,17.067,17.067H153.6c9.426,0,17.067-7.641,17.067-17.067v-83.319
				C170.666,140.363,166.725,134.27,160.597,131.516z M153.6,230.4H68.267V108.681l85.333,38.4V230.4z"/>
			<path d="M153.6,264.533H68.267c-9.426,0-17.067,7.641-17.067,17.067v121.711c-0.011,5.793,2.928,11.193,7.799,14.327
				c4.856,3.16,10.987,3.626,16.265,1.237l85.333-38.4c1.493-0.674,2.881-1.559,4.122-2.628c0.851-0.789,1.615-1.667,2.278-2.62
				c0.282-0.358,0.657-0.649,0.905-1.033c0.554-0.949,1.014-1.949,1.374-2.987c0.242-0.457,0.458-0.927,0.648-1.408
				c0.486-1.585,0.737-3.232,0.742-4.89V281.6C170.667,272.174,163.026,264.533,153.6,264.533z M153.6,364.911l-85.333,38.4V281.6
				H153.6V364.911z"/>
			<path d="M358.4,247.467h85.333c9.426,0,17.067-7.641,17.067-17.067V108.681c0-5.79-2.936-11.184-7.798-14.329
				s-10.986-3.61-16.266-1.236l-85.333,38.4c-6.127,2.754-10.069,8.847-10.069,15.565V230.4
				C341.333,239.826,348.974,247.467,358.4,247.467z M358.4,147.081l85.333-38.4V230.4H358.4V147.081z"/>
			<path d="M443.75,264.533H358.4c-9.426,0-17.067,7.641-17.067,17.067v83.311c0.001,6.718,3.942,12.81,10.069,15.565l85.333,38.4
				c2.206,0.992,4.596,1.507,7.014,1.51c9.426,0,17.067-7.641,17.067-17.067V281.6C460.817,272.174,453.176,264.533,443.75,264.533z
				 M443.733,403.311l-85.333-38.4V281.6h85.333V403.311z"/>
			<path d="M256,102.4c4.713,0,8.533-3.821,8.533-8.533v-51.2c0-4.713-3.82-8.533-8.533-8.533s-8.533,3.82-8.533,8.533v51.2
				C247.467,98.579,251.287,102.4,256,102.4z"/>
			<path d="M256,136.533c4.713,0,8.533-3.82,8.533-8.533v-8.533c0-4.713-3.82-8.533-8.533-8.533s-8.533,3.82-8.533,8.533V128
				C247.467,132.713,251.287,136.533,256,136.533z"/>
		</g>
	</g>
</g>
<g>
</g>
<g>
</g>
<g>
</g>
<g>
</g>
<g>
</g>
<g>
</g>
<g>
</g>
<g>
</g>
<g>
</g>
<g>
</g>
<g>
</g>
<g>
</g>
<g>
</g>
<g>
</g>
<g>
</g>
</svg>
